# xmcd
#
# Track frame offsets:
#	150
#	11496
#	24186
#	39838
#	54321
#	72335
#	87523
#	103453
#	115070
#	130337
#	146433
#	159773
#
# Disc length: 2364 seconds
#
# Revision: 1
# Processed by: cddbd v1.5.2PL0 Copyright (c) Steve Scherf et al.
# Submitted via: EZCDAudioConverter 7.0.7.1
#
DISCID=93093a0c
DTITLE=Various Artist - Constant Sorrow - A Tribute to Ralph Stanley
DYEAR=2015
DGENRE=Bluegrass
TTITLE0=Ralph Stanley II - Katy Daly
TTITLE1=Jeff Bates - I Think I'll Just Go Away
TTITLE2=Marty Raybon and Sonya Isaacs - Constant Sorrow
TTITLE3=Jeff and Sheri Easter - Going up Home to Live in Green Pastures
TTITLE4=The Lewis Tradition - Dad's Ole Rocky Field
TTITLE5=Vince GIll and Rebecca Lynn Howard - Pretty Polly
TTITLE6=Charlie McCoy - Little Maggie
TTITLE7=Jimmy Fortune - A Room at the Top of the Stairs
TTITLE8=Gene Watson - Oh Death
TTITLE9=Nathan Stanley - A Robin Built a Nest on Daddy's Grave
TTITLE10=Ricky Skaggs - Masters Bouquet
TTITLE11=Rhonda Vincent - The Darkest Hour
EXTD=
EXTT0=
EXTT1=
EXTT2=
EXTT3=
EXTT4=
EXTT5=
EXTT6=
EXTT7=
EXTT8=
EXTT9=
EXTT10=
EXTT11=
PLAYORDER=
